# xmcd
#
# Track frame offsets: 
#        150
#        27202
#        41698
#        64165
#        88206
#        108920
#        128788
#        150679
#        167583
#        193588
#        209505
#        226394
#        248047
#        274157
#        296722
#
# Disc length: 4275 seconds
#
# Revision: 0
# Processed by: cddbd v1.5.2PL0 Copyright (c) Steve Scherf et al.
# Submitted via: ExactAudioCopyFreeDBPlugin 1.0
#
DISCID=d710b10f
DTITLE=Sir Elwood duo - Torstai-ilta Tavastia-Klubilla
DYEAR=2013
DGENRE=Acoustic
TTITLE0=Pohjanmaan vuoret
TTITLE1=Sellaista se on
TTITLE2=Hämärän taa
TTITLE3=Tuulen poika
TTITLE4=Lumen aika
TTITLE5=Kekkonen
TTITLE6=Marssi
TTITLE7=Perunamaa
TTITLE8=Elisa
TTITLE9=Kun eilistä mä lähdin etsimään
TTITLE10=Tango
TTITLE11=Puunukke
TTITLE12=Älä mee
TTITLE13=Viimeisellä rannalla
TTITLE14=Lasinen vuori
EXTD=
EXTT0=
EXTT1=
EXTT2=
EXTT3=
EXTT4=
EXTT5=
EXTT6=
EXTT7=
EXTT8=
EXTT9=
EXTT10=
EXTT11=
EXTT12=
EXTT13=
EXTT14=
PLAYORDER=
